<?xml version="1.0" encoding="UTF-8"?><svg id="Layer_1" xmlns="http://www.w3.org/2000/svg" width="12.504in" height="2.697in" viewBox="0 0 900.317 194.203"><path d="M395.683,118.889l.587-3.091c4.686-1.029,9.472-1.834,10.354-7.468-1.839-28.311,2.646-60.096.106-87.989-.647-7.109-4.396-8.566-11.048-9.47v-2.983h51.5c47.58,0,72.882,66.316,34.416,97.416-6.346,5.131-24.571,13.584-32.416,13.584h-53.5ZM425.183,12.889l-1.5,1.5v93c0,3.914,7.284,6.159,10.515,6.486,45.586,4.617,55.305-43.397,40.342-77.342-4.725-10.72-16.688-23.643-29.357-23.643h-20Z" fill="#fff"/><path d="M526.683,46.889v64.5c0,1.84,5.778,5.719,7.993,5.513.431,1.006-2.33,1.987-2.493,1.987h-31.5l-.006-2.994c7.094-.288,9.46-2.497,10.044-9.468.75-8.944,1.201-32.654-.097-40.979-.884-5.665-5.701-5.4-8.921-9.059.032-1.56,21.453-10.408,24.98-9.5Z" fill="#fff"/><path d="M510.689,42.884c-.663-.66,1.953-6.725,2.51-7.98,1.349-3.04,5.641-13.281,7.028-14.973,6.082-7.422,15.172.032,9.91,8.913-1.393,2.351-17.78,15.698-19.447,14.04Z" fill="#fff"/><path d="M590.922,109.644c3.5,3.502,9.828-2.945,8.746.725-1.436,4.875-9.831,9.228-14.626,9.459-9.123.438-10.6-8.903-11.86-8.92-9.657,11.776-36.536,13.817-37.575-5.489-.944-17.523,24.524-20.822,36.491-26.615,2.432-1.739,1.849-7.613,1.568-10.403-1.488-14.776-16.037-15.92-25.519-6.549-3.473,3.432-4.485,10.339-9.459,9.036-1.089-26.753,47.587-35.077,50.888-6.393.83,7.213-1.4,42.401,1.346,45.148ZM573.683,84.889c-8.413,3.087-21.545,6.405-21.097,17.521.34,8.442,9.742,8.812,15.796,5.679,1.051-.544,5.301-4.207,5.301-4.7v-18.5Z" fill="#fff"/><path d="M750.683,45.889v65.5c0,3.454,5.82,2.383,6.512,5.538,2.747-1.698,7.821-3.224,8.467-6.559-1.315-14.323,1.887-32.037-.067-45.927-.91-6.468-9.597-4.132-6.693-9.352.734-1.32,21.554-9.419,22.777-8.201.136,1.835-.768,9.867,1.499,9.977,10.894-11.853,36.979-15.903,41.064,3.967,2.217,10.786-2.289,46.435,2.388,52.609,1.281,1.69,3.981,2.412,6.049,2.473l.005,2.976h-33v-2.982c4.444-.261,8.191-1.744,8.941-6.577,1.048-6.758.768-38.955-1.15-44.726-2.294-6.898-8.076-8.942-15.068-7.484-1.829.381-7.878,3.674-8.789,5.202-3.571,5.987.761,39.873-.936,49.071.741,3.932,7.056,2.47,5.999,7.491l-35.455.049c-8.013-.749-17.265.851-25.091.006-1.478-.16-2.533-.172-3.44-1.565l8.057-4.918c.888-.843.832-1.919.983-3.017,1.097-8.02,1.003-36.961-.143-44.994-.871-6.105-5.997-3.051-7.852-8.071.197-2.051,21.469-9.812,24.945-10.485Z" fill="#fff"/><path d="M723.679,37.894l-3.004-.697c-6.857-20.524-24.493-30.523-45.772-24.588-34.199,9.539-38.575,78.424-11.557,97.117,15.427,10.673,38.667,7.837,50.995-6.176,1.181-1.342,8.458-15.814,10.337-13.656-.6,13.482-.031,22.423-14.212,27.278-48.434,16.582-93.75-12.863-82.506-66.506,9.137-43.593,56.461-52.656,93.266-38.82l2.453,26.048Z" fill="#fff"/><path d="M741.437,16.063c9.383-1.559,15.563,12.632,5.618,17.695-14.067,7.162-20.494-15.223-5.618-17.695Z" fill="#fff"/><path d="M855.183,78.889l-1.338,1.655c-2.495,20.08,16.324,35.909,35.177,26.183,1.536-.793,9.837-8.792,10.656-7.834-1.03,11.611-15.651,20.045-26.452,21.037-29.23,2.683-43.463-24.82-34.316-50.316,10.229-28.513,53.318-31.966,60.525-.976.409,1.757,1.897,10.25-.251,10.25h-44ZM883.683,72.889c1.942-28.775-28.303-24.804-30,0h30Z" fill="#fff"/><path d="M177.683,110.389c1.198,4.32,13.909,7.585,15.05-.951-2.218-28.142,2.802-60.406-.052-88.047-.678-6.565-1.979-5.858-6.992-8.052-1.226-.537-2.448.068-1.995-1.935.948-2.372,21.294-11.871,23.287-11.386.652.159,1.379.749,1.79,1.287,1.63,2.139,1.03,21.717.961,26.132-.374,23.913-2.402,48.759-1.066,73,.393,7.128.105,14.739,9.017,15.464.183,1.11-.01,1.873-.989,2.497-5.334,3.405-45.786-2.614-55.002,1.488l-.017-10.996c-9.73,10.306-32.41,17.482-41.197,2.707-7.162-12.042,1.255-49.441-4.845-56.155-.977-1.075-5.921-3.16-5.929-4.051.775-.646,1.379-1.916,2.437-2.084,2.545-.403,10.291.762,14.086.626,2.544-.092,4.892-1.22,7.458-1.043v51.5c0,.55,2.645,5.467,3.335,6.165,6.275,6.348,23.571,2.563,24.718-6.112.961-7.272.877-31.693-.143-38.962-.703-5.007-3.798-8.451-8.902-8.617l-.013-2.969,25.005-1.004v61.5Z" fill="#fff"/><path d="M310.683,78.889c-2.759,21.007,14.644,37.589,35.037,27.537,3.77-1.858,5.651-4.682,8.461-6.543,1.292-.855,2.191-1.043,2.503.525.906,4.55-9.745,13.478-13.473,15.51-27.654,15.07-54.067-7.683-50.273-37.273,5.377-41.94,64.612-41.478,64.789-3.202.005,1.117-.515,3.445-1.545,3.445h-45.5ZM340.683,72.889c1.4-27.95-29.281-25.507-30,0h30Z" fill="#fff"/><path d="M286.449,68.651c-1.682,1.694-5.41,1.397-7.512.487-5.236-2.266-5.337-14.014-14.98-16.017-27.391-5.69-33.03,43.474-9.946,53.941,8.53,3.868,18.413,2.077,25.584-3.762,3.126-2.545,4.429-6.62,8.084-7.406-1.343,25.364-36.704,30.814-53.474,15.975-30.55-27.032.959-77.952,42.457-62.457,6.887,2.572,16.305,12.674,9.789,19.239Z" fill="#fff"/><path d="M1.683,118.889c-1.541-4.868,7.051-4.278,8.765-6.24.603-.691,1.106-4.077,1.221-5.27,2.649-27.559-1.987-59.051.062-87.038-.899-9.921-6.115-6.535-11.057-9.944-1.532-1.057-.05-2.508.51-2.508h51c27.9,0,52.707,27.135,53.297,54.502.616,28.625-22.893,56.498-52.297,56.498H1.683ZM50.183,12.889c-6.676-.795-14.665.583-21.5,0v95.5c0,9.492,29.748,4.848,35.996,1.996,33.092-15.105,27.644-92.477-14.496-97.496Z" fill="#fff"/><path d="M387.587,161.988l5.107,20.9c1.499-.153,1.554-1.47,1.94-2.549,1.812-5.067,2.128-12.169,4.762-17.21,1.182-2.263,3.208-1.41,5.331-.776l5.968,20.535c1.515-.152,1.543-1.484,1.936-2.552.991-2.688,4.125-17.637,5.192-18.306l5.863-.136-8.105,30.889-8.422-.869-4.976-17.034-5.638,17.87h-6.724s-9.122-29.393-9.122-29.393c-.473-2.82,5.16-1.144,6.888-1.368Z" fill="#fff"/><path d="M742.683,161.889l9.505.995,6.508,19.002c1.519-.14,1.533-1.506,1.936-2.55,1.128-2.919,4.316-15.251,5.52-16.48,1.907-1.946,6.831-.625,9.532-.968v31l-6.999-.01c2.057-2.099.774-18.983-.501-19l-6.641,18.864-4.722.004c-2.151-5.396-3.788-11.098-6.037-16.458-.513-1.222-.151-3.101-2.1-3.4v20h-6v-31Z" fill="#fff"/><path d="M563.683,161.889c2.139.192,5.118-.619,6.997.504,2.725,1.629,9.329,15.886,12.992,18.496l-.85-17.36c.82-2.498,4.709-1.519,6.861-1.64v31c-1.888-.315-5.326.634-6.799-.212-1.691-.971-8.795-17.282-13.201-18.788v19h-6v-31Z" fill="#fff"/><path d="M467.683,192.889v-31h14.5c.275,0,4.597,1.481,5.211,1.789,7.448,3.744,9.554,15.232,5.707,22.129-.965,1.729-7.363,7.082-8.918,7.082h-16.5ZM474.683,187.889c17.523,2.073,18.263-22.725,0-20v20Z" fill="#fff"/><path d="M505.683,192.889v-31h14.5c6.868,0,12.58,9.125,12.58,15.5,0,5.669-5.356,15.5-11.58,15.5h-15.5ZM512.683,187.889c16.961,2.642,17.549-22.754,0-20v20Z" fill="#fff"/><path d="M629.584,171.789c-3.245,4.647-8.564-5.127-13.15-4.713-15.906,1.437-4.913,34.017,8.224,16.307l-6.027-1.942-.951-4.548,13.009-.01c4.181,25.638-33.675,20.454-28.775-3.273,1.842-8.922,12.294-14.856,20.77-11.218,2.584,1.109,8.906,6.524,6.901,9.397Z" fill="#fff"/><path d="M805.388,168.214c-2.82-1.947-6.091-1.566-9.126-.428-3.062,6.241,6.396,5.878,10.322,7.702,17.424,8.098-.565,25.003-15.281,16.281-1.705-1.011-4.728-5.223-3.585-6.828,2.952-4.147,12.121,7.451,17.967,2.456,4.511-8.351-12.554-6.554-16.069-11.934-6.365-9.742,10.821-19.404,20.11-11.117,3.505,3.127,4.256,7.543-1.551,6.598-2.335-.38-2.071-2.235-2.788-2.73Z" fill="#fff"/><polygon points="456.683 161.889 455.183 167.889 440.683 167.889 440.678 173.894 452.689 173.884 452.701 179.314 440.678 179.884 440.683 187.889 456.683 187.889 456.683 192.889 433.683 192.889 433.683 161.889 456.683 161.889" fill="#fff"/><path d="M681.683,161.889c-.035,1.944.675,5.099-1.639,5.861l-13.366.134v7.01s11.01-.01,11.01-.01v5.011s-11.01-.01-11.01-.01l.01,13.01-7.005-.005v-31h22Z" fill="#fff"/><path d="M718.683,187.889h14v5h-21v-31c2.43.072,5.38-.759,7,1.5v24.5Z" fill="#fff"/><rect x="543.683" y="161.889" width="7" height="31" fill="#fff"/><path d="M698.683,192.889h-7v-31c2.43.072,5.38-.759,7,1.5v29.5Z" fill="#fff"/><path d="M193.683,161.889l8.53.97,6.481,19.029c3.991-2.9,4.981-19.154,9.475-20.011,2.236-.426,5.151.281,7.514.012v31l-6.999-.01c2.134-5.939-.577-12.737-.501-19l-6.589,18.913-3.931-.386-7.98-20.517v21h-6v-31Z" fill="#fff"/><path d="M125.683,192.889l-6.999-.01.951-30.526c1.165-.703,5.711-.889,6.839-.239,2.986,1.721,8.992,16.562,13.21,18.774v-16.5c0-.247-.808-.595-.774-1l1.391-1.38,5.382-.12v31c-2.139-.192-5.118.619-6.997-.504-3.007-1.797-8.759-15.939-13.003-18.496v19Z" fill="#fff"/><path d="M181.683,161.889v6h-16l-.005,6.005,11.354.145c7.385,8.998-10.247,4.739-11.354,5.844l.005,8.005h17l-1.5,5h-22.5c1.22-9.439.102-19.729.161-29.408l1.339-1.592h21.5Z" fill="#fff"/><path d="M254.548,162.024l11.132,30.86-6.858-.133-2.027-6.269-11.45-.431-3.619,6.381-6.038.453,11.158-30.827,7.702-.033ZM251.678,169.885c-2.561-.39-1.557.218-2.091,1.408-.541,1.206-3.328,9.182-2.899,9.59h6.998s-2.008-10.999-2.008-10.999Z" fill="#fff"/><path d="M353.678,172.884c-8.213,2.231-9.057-10.158-17.491-3.982-12.414,9.089,3.638,29.45,13.157,13.081l4.305.956c-3.128,17.602-28.238,12.691-28.996-4.598-.811-18.502,25.811-24.028,29.024-5.456Z" fill="#fff"/><path d="M87.687,172.885c-7.095,2.576-7.036-6.298-13.356-5.726-10.482.949-11.389,22.189,1.756,20.706,6.146-.693,5.88-5.549,7.202-5.924l5.394.959c.101,5.76-6.333,10.367-11.609,10.925-18.203,1.924-24.466-23.482-8.783-30.826,8.675-4.063,19.03-.434,19.396,9.886Z" fill="#fff"/><polygon points="297.683 161.889 296.747 167.453 286.683 167.889 286.683 192.889 279.683 192.889 279.683 167.889 270.62 167.453 269.683 161.889 297.683 161.889" fill="#fff"/><path d="M105.683,161.889v31l-7.001-.003c-.434-.452.827-10.929.808-12.499-.085-6.97-4.697-21.267,6.193-18.497Z" fill="#fff"/><path d="M307.683,161.889l6.552.954c-.297,9.643-1.682,20.064.462,29.532l-7.015.514v-31Z" fill="#fff"/></svg>