<?xml version="1.0" encoding="UTF-8"?>
<svg id="Layer_1" xmlns="http://www.w3.org/2000/svg" version="1.1" viewBox="0 0 1024 1024">
  <!-- Generator: Adobe Illustrator 29.7.1, SVG Export Plug-In . SVG Version: 2.1.1 Build 8)  -->
  <defs>
    <style>
      .st0 {
        display: none;
      }

      .st0, .st1 {
        fill: #fff;
      }
    </style>
  </defs>
  <path class="st1" d="M1024,0v1024H0V0h1024ZM257,510.5v-61.5l-25.01,1v2.97c5.12.17,8.21,3.61,8.91,8.62,1.02,7.27,1.1,31.69.14,38.96-1.15,8.68-18.44,12.46-24.72,6.11-.69-.7-3.34-5.61-3.34-6.16v-51.5c-2.57-.18-4.91.95-7.46,1.04-3.79.14-11.54-1.03-14.09-.63-1.06.17-1.66,1.44-2.44,2.08,0,.89,4.95,2.98,5.93,4.05,6.1,6.71-2.32,44.11,4.84,56.16,8.79,14.78,31.47,7.6,41.2-2.71l.02,11c9.22-4.1,49.67,1.92,55-1.49.98-.62,1.17-1.39.99-2.5-8.91-.72-8.62-8.34-9.02-15.46-1.34-24.24.69-49.09,1.07-73,.07-4.41.67-23.99-.96-26.13-.41-.54-1.14-1.13-1.79-1.29-1.99-.49-22.34,9.01-23.29,11.39-.45,2,.77,1.4,2,1.94,5.01,2.19,6.31,1.49,6.99,8.05,2.85,27.64-2.17,59.9.05,88.05-1.14,8.54-13.85,5.27-15.05.95ZM803,438.01l-2.45-26.05c-36.81-13.84-84.13-4.77-93.27,38.82-11.24,53.64,34.07,83.09,82.51,66.51,14.18-4.86,13.61-13.8,14.21-27.28-1.88-2.16-9.16,12.31-10.34,13.66-12.33,14.01-35.57,16.85-51,6.18-27.02-18.69-22.64-87.58,11.56-97.12,21.28-5.94,38.91,4.06,45.77,24.59l3,.7ZM81,519h51.5c29.4,0,52.91-27.87,52.3-56.5-.59-27.37-25.4-54.5-53.3-54.5h-51c-.56,0-2.04,1.45-.51,2.51,4.94,3.41,10.16.02,11.06,9.94-2.05,27.99,2.59,59.48-.06,87.04-.11,1.19-.62,4.58-1.22,5.27-1.71,1.96-10.31,1.37-8.77,6.24ZM475,519h53.5c7.85,0,26.07-8.45,32.42-13.58,38.47-31.1,13.16-97.42-34.42-97.42h-51.5v2.98c6.65.9,10.4,2.36,11.05,9.47,2.54,27.89-1.95,59.68-.11,87.99-.88,5.63-5.67,6.44-10.35,7.47l-.59,3.09ZM820.75,416.17c-14.88,2.47-8.45,24.86,5.62,17.69,9.94-5.06,3.77-19.25-5.62-17.69ZM590.01,442.99c1.67,1.66,18.05-11.69,19.45-14.04,5.26-8.88-3.83-16.33-9.91-8.91-1.39,1.69-5.68,11.93-7.03,14.97-.56,1.25-3.17,7.32-2.51,7.98ZM830,446c-3.48.67-24.75,8.43-24.94,10.49,1.85,5.02,6.98,1.97,7.85,8.07,1.15,8.03,1.24,36.97.14,44.99-.15,1.1-.09,2.17-.98,3.02l-8.06,4.92c.91,1.39,1.96,1.41,3.44,1.57,7.83.84,17.08-.75,25.09,0l35.46-.05c1.06-5.02-5.26-3.56-6-7.49,1.7-9.2-2.64-43.08.94-49.07.91-1.53,6.96-4.82,8.79-5.2,6.99-1.46,12.77.59,15.07,7.48,1.92,5.77,2.2,37.97,1.15,44.73-.75,4.83-4.5,6.32-8.94,6.58v2.98h33v-2.98c-2.07-.06-4.77-.78-6.05-2.47-4.68-6.17-.17-41.82-2.39-52.61-4.08-19.87-30.17-15.82-41.06-3.97-2.27-.11-1.36-8.14-1.5-9.98-1.22-1.22-22.04,6.88-22.78,8.2-2.9,5.22,5.78,2.88,6.69,9.35,1.95,13.89-1.25,31.6.07,45.93-.65,3.33-5.72,4.86-8.47,6.56-.69-3.15-6.51-2.08-6.51-5.54v-65.5ZM365.77,468.76c6.52-6.56-2.9-16.67-9.79-19.24-41.5-15.5-73.01,35.42-42.46,62.46,16.77,14.84,52.13,9.39,53.47-15.97-3.65.79-4.96,4.86-8.08,7.41-7.17,5.84-17.05,7.63-25.58,3.76-23.08-10.47-17.44-59.63,9.95-53.94,9.64,2,9.74,13.75,14.98,16.02,2.1.91,5.83,1.21,7.51-.49ZM390,479h45.5c1.03,0,1.55-2.33,1.54-3.45-.18-38.28-59.41-38.74-64.79,3.2-3.79,29.59,22.62,52.34,50.27,37.27,3.73-2.03,14.38-10.96,13.47-15.51-.31-1.57-1.21-1.38-2.5-.53-2.81,1.86-4.69,4.68-8.46,6.54-20.39,10.05-37.8-6.53-35.04-27.54ZM606,447c-3.53-.91-24.95,7.94-24.98,9.5,3.22,3.66,8.04,3.39,8.92,9.06,1.3,8.32.85,32.04.1,40.98-.58,6.97-2.95,9.18-10.04,9.47v2.99h31.51c.16,0,2.92-.98,2.49-1.99-2.21.21-7.99-3.67-7.99-5.51v-64.5ZM670.24,509.75c-2.75-2.75-.52-37.94-1.35-45.15-3.3-28.68-51.98-20.36-50.89,6.39,4.97,1.3,5.99-5.6,9.46-9.04,9.48-9.37,24.03-8.23,25.52,6.55.28,2.79.86,8.66-1.57,10.4-11.97,5.79-37.43,9.09-36.49,26.61,1.04,19.31,27.92,17.26,37.58,5.49,1.26.02,2.74,9.36,11.86,8.92,4.79-.23,13.19-4.58,14.63-9.46,1.08-3.67-5.25,2.78-8.75-.73ZM934.5,479h44c2.15,0,.66-8.49.25-10.25-7.21-30.99-50.3-27.54-60.52.98-9.15,25.5,5.09,53,34.32,50.32,10.8-.99,25.42-9.43,26.45-21.04-.82-.96-9.12,7.04-10.66,7.83-18.85,9.73-37.67-6.1-35.18-26.18l1.34-1.66ZM167,573c-.37-10.32-10.72-13.95-19.4-9.89-15.68,7.34-9.42,32.75,8.78,30.83,5.28-.56,11.71-5.17,11.61-10.93l-5.39-.96c-1.32.38-1.06,5.23-7.2,5.92-13.14,1.48-12.24-19.76-1.76-20.71,6.32-.57,6.26,8.3,13.36,5.73ZM708.9,571.9c2.01-2.87-4.32-8.29-6.9-9.4-8.48-3.64-18.93,2.3-20.77,11.22-4.9,23.73,32.96,28.91,28.77,3.27h-13.01s.95,4.56.95,4.56l6.03,1.94c-13.14,17.71-24.13-14.87-8.22-16.31,4.59-.41,9.9,9.36,13.15,4.71ZM884.7,568.33c.72.49.45,2.35,2.79,2.73,5.81.94,5.06-3.47,1.55-6.6-9.29-8.29-26.47,1.38-20.11,11.12,3.51,5.38,20.58,3.58,16.07,11.93-5.85,5-15.02-6.6-17.97-2.46-1.14,1.61,1.88,5.82,3.58,6.83,14.72,8.72,32.71-8.18,15.28-16.28-3.93-1.82-13.38-1.46-10.32-7.7,3.04-1.14,6.31-1.52,9.13.43ZM185,562c-10.89-2.77-6.28,11.53-6.19,18.5.02,1.57-1.24,12.05-.81,12.5h7s0-31,0-31ZM205,593v-19c4.24,2.56,10,16.7,13,18.5,1.88,1.12,4.86.31,7,.5v-31l-5.38.12-1.39,1.38c-.03.41.77.75.77,1v16.5c-4.22-2.21-10.22-17.05-13.21-18.77-1.13-.65-5.67-.46-6.84.24l-.95,30.53h7ZM261,562h-21.5l-1.34,1.59c-.06,9.68,1.06,19.97-.16,29.41h22.5l1.5-5h-17v-8.01c1.1-1.11,18.73,3.15,11.35-5.84l-11.35-.15v-6.01h16.01v-6ZM273,562v31h6v-21l7.98,20.52,3.93.39,6.59-18.91c-.08,6.26,2.64,13.06.5,19h7s0-30.99,0-30.99c-2.36.27-5.28-.44-7.51-.01-4.49.86-5.48,17.11-9.47,20.01l-6.48-19.03-8.53-.97ZM333.86,562.14l-7.7.03-11.16,30.83,6.04-.45,3.62-6.38,11.45.43,2.03,6.27,6.86.13-11.13-30.86ZM377,562h-28l.94,5.56,9.06.44v25h7v-25l10.06-.44.94-5.56ZM387,562v31l7.01-.51c-2.14-9.47-.76-19.89-.46-29.53l-6.55-.95ZM432.99,572.99c-3.21-18.57-29.84-13.05-29.02,5.46.76,17.29,25.87,22.2,29,4.6l-4.3-.96c-9.52,16.37-25.57-3.99-13.16-13.08,8.43-6.18,9.28,6.21,17.49,3.98ZM466.9,562.1c-1.73.22-7.36-1.45-6.89,1.37l9.12,29.39h6.72s5.64-17.87,5.64-17.87l4.98,17.03,8.42.87,8.1-30.89-5.86.14c-1.07.67-4.2,15.62-5.19,18.31-.39,1.07-.42,2.4-1.94,2.55l-5.97-20.54c-2.12-.63-4.15-1.49-5.33.78-2.63,5.04-2.95,12.14-4.76,17.21-.39,1.08-.44,2.4-1.94,2.55l-5.11-20.9ZM536,562h-23v31h23v-5h-16v-8.01s12.02-.57,12.02-.57v-5.43s-12.02.01-12.02.01v-6.01h14.51l1.5-6ZM547,593h16.5c1.55,0,7.95-5.35,8.92-7.08,3.85-6.9,1.74-18.38-5.71-22.13-.61-.31-4.94-1.79-5.21-1.79h-14.5v31ZM585,593h15.5c6.22,0,11.58-9.83,11.58-15.5,0-6.38-5.71-15.5-12.58-15.5h-14.5v31ZM630,562h-7v31h7v-31ZM643,562v31h6v-19c4.41,1.51,11.51,17.82,13.2,18.79,1.47.85,4.91-.1,6.8.21v-31c-2.15.12-6.04-.86-6.86,1.64l.85,17.36c-3.66-2.61-10.27-16.87-12.99-18.5-1.88-1.12-4.86-.31-7-.5ZM761,562h-22v31h7.01s-.01-13.01-.01-13.01h11.01s0-5,0-5h-11.01s0-7,0-7l13.37-.13c2.31-.76,1.6-3.92,1.64-5.86ZM778,593v-29.5c-1.62-2.26-4.57-1.43-7-1.5v31h7ZM798,588v-24.5c-1.62-2.26-4.57-1.43-7-1.5v31h21v-5h-14ZM822,562v31h6v-20c1.95.3,1.59,2.18,2.1,3.4,2.25,5.36,3.89,11.06,6.04,16.46h4.72s6.64-18.87,6.64-18.87c1.27.02,2.56,16.9.5,19h7s0-30.99,0-30.99c-2.7.34-7.62-.98-9.53.97-1.2,1.23-4.39,13.56-5.52,16.48-.4,1.04-.42,2.41-1.94,2.55l-6.51-19-9.5-1Z"/>
  <g>
    <g>
      <path d="M475,519l.59-3.09c4.69-1.03,9.47-1.83,10.35-7.47-1.84-28.31,2.65-60.1.11-87.99-.65-7.11-4.4-8.57-11.05-9.47v-2.98h51.5c47.58,0,72.88,66.32,34.42,97.42-6.35,5.13-24.57,13.58-32.42,13.58h-53.5ZM504.5,413l-1.5,1.5v93c0,3.91,7.28,6.16,10.51,6.49,45.59,4.62,55.3-43.4,40.34-77.34-4.73-10.72-16.69-23.64-29.36-23.64h-20Z"/>
      <path d="M606,447v64.5c0,1.84,5.78,5.72,7.99,5.51.43,1.01-2.33,1.99-2.49,1.99h-31.5v-2.99c7.09-.29,9.45-2.5,10.04-9.47.75-8.94,1.2-32.65-.1-40.98-.88-5.66-5.7-5.4-8.92-9.06.03-1.56,21.45-10.41,24.98-9.5Z"/>
      <path d="M590.01,442.99c-.66-.66,1.95-6.73,2.51-7.98,1.35-3.04,5.64-13.28,7.03-14.97,6.08-7.42,15.17.03,9.91,8.91-1.39,2.35-17.78,15.7-19.45,14.04Z"/>
      <path class="st1" d="M504.5,413h20c12.67,0,24.63,12.92,29.36,23.64,14.96,33.95,5.24,81.96-40.34,77.34-3.23-.33-10.51-2.57-10.51-6.49v-93l1.5-1.5Z"/>
      <g>
        <path d="M670.24,509.75c3.5,3.5,9.83-2.94,8.75.73-1.44,4.88-9.83,9.23-14.63,9.46-9.12.44-10.6-8.9-11.86-8.92-9.66,11.78-36.54,13.82-37.58-5.49-.94-17.52,24.52-20.82,36.49-26.61,2.43-1.74,1.85-7.61,1.57-10.4-1.49-14.78-16.04-15.92-25.52-6.55-3.47,3.43-4.48,10.34-9.46,9.04-1.09-26.75,47.59-35.08,50.89-6.39.83,7.21-1.4,42.4,1.35,45.15ZM653,485c-8.41,3.09-21.54,6.4-21.1,17.52.34,8.44,9.74,8.81,15.8,5.68,1.05-.54,5.3-4.21,5.3-4.7v-18.5Z"/>
        <path class="st1" d="M653,485v18.5c0,.49-4.25,4.16-5.3,4.7-6.05,3.13-15.46,2.76-15.8-5.68-.45-11.12,12.68-14.43,21.1-17.52Z"/>
      </g>
      <g>
        <path d="M830,446v65.5c0,3.45,5.82,2.38,6.51,5.54,2.75-1.7,7.82-3.22,8.47-6.56-1.31-14.32,1.89-32.04-.07-45.93-.91-6.47-9.6-4.13-6.69-9.35.73-1.32,21.55-9.42,22.78-8.2.14,1.84-.77,9.87,1.5,9.98,10.89-11.85,36.98-15.9,41.06,3.97,2.22,10.79-2.29,46.44,2.39,52.61,1.28,1.69,3.98,2.41,6.05,2.47v2.98s-32.99,0-32.99,0v-2.98c4.44-.26,8.19-1.74,8.94-6.58,1.05-6.76.77-38.95-1.15-44.73-2.29-6.9-8.08-8.94-15.07-7.48-1.83.38-7.88,3.67-8.79,5.2-3.57,5.99.76,39.87-.94,49.07.74,3.93,7.06,2.47,6,7.49l-35.46.05c-8.01-.75-17.27.85-25.09,0-1.48-.16-2.53-.17-3.44-1.57l8.06-4.92c.89-.84.83-1.92.98-3.02,1.1-8.02,1-36.96-.14-44.99-.87-6.1-6-3.05-7.85-8.07.2-2.05,21.47-9.81,24.94-10.49Z"/>
        <path d="M803,438.01l-3-.7c-6.86-20.52-24.49-30.52-45.77-24.59-34.2,9.54-38.58,78.42-11.56,97.12,15.43,10.67,38.67,7.84,51-6.18,1.18-1.34,8.46-15.81,10.34-13.66-.6,13.48-.03,22.42-14.21,27.28-48.43,16.58-93.75-12.86-82.51-66.51,9.14-43.59,56.46-52.66,93.27-38.82l2.45,26.05Z"/>
        <path d="M820.75,416.17c9.38-1.56,15.56,12.63,5.62,17.69-14.07,7.16-20.49-15.22-5.62-17.69Z"/>
        <g>
          <path d="M934.5,479l-1.34,1.66c-2.5,20.08,16.32,35.91,35.18,26.18,1.54-.79,9.84-8.79,10.66-7.83-1.03,11.61-15.65,20.05-26.45,21.04-29.23,2.68-43.46-24.82-34.32-50.32,10.23-28.51,53.32-31.97,60.52-.98.41,1.76,1.9,10.25-.25,10.25h-44ZM963,473c1.94-28.78-28.3-24.8-30,0h30Z"/>
          <path class="st1" d="M963,473h-30c1.7-24.8,31.94-28.78,30,0Z"/>
        </g>
      </g>
    </g>
    <g>
      <path d="M257,510.5c1.2,4.32,13.91,7.58,15.05-.95-2.22-28.14,2.8-60.41-.05-88.05-.68-6.57-1.98-5.86-6.99-8.05-1.23-.54-2.45.07-2-1.94.95-2.37,21.29-11.87,23.29-11.39.65.16,1.38.75,1.79,1.29,1.63,2.14,1.03,21.72.96,26.13-.37,23.91-2.4,48.76-1.07,73,.39,7.13.11,14.74,9.02,15.46.18,1.11-.01,1.87-.99,2.5-5.33,3.4-45.79-2.61-55,1.49l-.02-11c-9.73,10.31-32.41,17.48-41.2,2.71-7.16-12.04,1.26-49.44-4.84-56.16-.98-1.08-5.92-3.16-5.93-4.05.78-.65,1.38-1.92,2.44-2.08,2.55-.4,10.29.76,14.09.63,2.54-.09,4.89-1.22,7.46-1.04v51.5c0,.55,2.65,5.47,3.34,6.16,6.27,6.35,23.57,2.56,24.72-6.11.96-7.27.88-31.69-.14-38.96-.7-5.01-3.8-8.45-8.9-8.62v-2.97s24.99-1,24.99-1v61.5Z"/>
      <path d="M390,479c-2.76,21.01,14.64,37.59,35.04,27.54,3.77-1.86,5.65-4.68,8.46-6.54,1.29-.86,2.19-1.04,2.5.53.91,4.55-9.74,13.48-13.47,15.51-27.65,15.07-54.07-7.68-50.27-37.27,5.38-41.94,64.61-41.48,64.79-3.2,0,1.12-.51,3.45-1.54,3.45h-45.5ZM420,473c1.4-27.95-29.28-25.51-30,0h30Z"/>
      <path d="M365.77,468.76c-1.68,1.69-5.41,1.4-7.51.49-5.24-2.27-5.34-14.01-14.98-16.02-27.39-5.69-33.03,43.47-9.95,53.94,8.53,3.87,18.41,2.08,25.58-3.76,3.13-2.55,4.43-6.62,8.08-7.41-1.34,25.36-36.7,30.81-53.47,15.97-30.55-27.03.96-77.95,42.46-62.46,6.89,2.57,16.31,12.67,9.79,19.24Z"/>
      <g>
        <path d="M81,519c-1.54-4.87,7.05-4.28,8.77-6.24.6-.69,1.11-4.08,1.22-5.27,2.65-27.56-1.99-59.05.06-87.04-.9-9.92-6.11-6.53-11.06-9.94-1.53-1.06-.05-2.51.51-2.51h51c27.9,0,52.71,27.14,53.3,54.5.62,28.63-22.89,56.5-52.3,56.5h-51.5ZM129.5,413c-6.68-.8-14.66.58-21.5,0v95.5c0,9.49,29.75,4.85,36,2,33.09-15.11,27.64-92.48-14.5-97.5Z"/>
        <path class="st1" d="M129.5,413c42.14,5.02,47.59,82.39,14.5,97.5-6.25,2.85-36,7.5-36-2v-95.5c6.84.58,14.82-.8,21.5,0Z"/>
      </g>
      <path class="st1" d="M420,473h-30c.72-25.51,31.4-27.95,30,0Z"/>
    </g>
  </g>
  <g>
    <path d="M466.9,562.1l5.11,20.9c1.5-.15,1.55-1.47,1.94-2.55,1.81-5.07,2.13-12.17,4.76-17.21,1.18-2.26,3.21-1.41,5.33-.78l5.97,20.54c1.51-.15,1.54-1.48,1.94-2.55.99-2.69,4.12-17.64,5.19-18.31l5.86-.14-8.1,30.89-8.42-.87-4.98-17.03-5.64,17.87h-6.72s-9.12-29.39-9.12-29.39c-.47-2.82,5.16-1.14,6.89-1.37Z"/>
    <path d="M822,562l9.5,1,6.51,19c1.52-.14,1.53-1.51,1.94-2.55,1.13-2.92,4.32-15.25,5.52-16.48,1.91-1.95,6.83-.62,9.53-.97v31h-7c2.06-2.11.77-18.99-.5-19.01l-6.64,18.86h-4.72c-2.15-5.39-3.79-11.09-6.04-16.45-.51-1.22-.15-3.1-2.1-3.4v20h-6v-31Z"/>
    <path d="M643,562c2.14.19,5.12-.62,7,.5,2.73,1.63,9.33,15.89,12.99,18.5l-.85-17.36c.82-2.5,4.71-1.52,6.86-1.64v31c-1.89-.32-5.33.63-6.8-.21-1.69-.97-8.8-17.28-13.2-18.79v19h-6v-31Z"/>
    <path d="M547,593v-31h14.5c.28,0,4.6,1.48,5.21,1.79,7.45,3.74,9.55,15.23,5.71,22.13-.96,1.73-7.36,7.08-8.92,7.08h-16.5ZM554,588c17.52,2.07,18.26-22.72,0-20v20Z"/>
    <path d="M585,593v-31h14.5c6.87,0,12.58,9.12,12.58,15.5,0,5.67-5.36,15.5-11.58,15.5h-15.5ZM592,588c16.96,2.64,17.55-22.75,0-20v20Z"/>
    <path d="M708.9,571.9c-3.25,4.65-8.56-5.13-13.15-4.71-15.91,1.44-4.91,34.02,8.22,16.31l-6.03-1.94-.95-4.55h13.01c4.18,25.63-33.67,20.44-28.77-3.28,1.84-8.92,12.29-14.86,20.77-11.22,2.58,1.11,8.91,6.52,6.9,9.4Z"/>
    <path d="M884.7,568.33c-2.82-1.95-6.09-1.57-9.13-.43-3.06,6.24,6.4,5.88,10.32,7.7,17.42,8.1-.56,25-15.28,16.28-1.71-1.01-4.73-5.22-3.58-6.83,2.95-4.15,12.12,7.45,17.97,2.46,4.51-8.35-12.55-6.55-16.07-11.93-6.36-9.74,10.82-19.4,20.11-11.12,3.51,3.13,4.26,7.54-1.55,6.6-2.34-.38-2.07-2.24-2.79-2.73Z"/>
    <polygon points="536 562 534.5 568 520 568 519.99 574.01 532.01 573.99 532.02 579.43 519.99 579.99 520 588 536 588 536 593 513 593 513 562 536 562"/>
    <path d="M761,562c-.04,1.94.67,5.1-1.64,5.86l-13.37.13v7.01s11.01-.01,11.01-.01v5.01s-11.01-.01-11.01-.01v13.01s-6.99,0-6.99,0v-31h22Z"/>
    <path d="M798,588h14v5h-21v-31c2.43.07,5.38-.76,7,1.5v24.5Z"/>
    <rect x="623" y="562" width="7" height="31"/>
    <path d="M778,593h-7v-31c2.43.07,5.38-.76,7,1.5v29.5Z"/>
    <path class="st0" d="M554,588v-20c18.26-2.72,17.52,22.07,0,20Z"/>
    <path class="st0" d="M592,588v-20c17.55-2.75,16.96,22.64,0,20Z"/>
    <g>
      <path d="M273,562l8.53.97,6.48,19.03c3.99-2.9,4.98-19.15,9.47-20.01,2.24-.43,5.15.28,7.51.01v31h-7c2.13-5.95-.58-12.75-.5-19.01l-6.59,18.91-3.93-.39-7.98-20.52v21h-6v-31Z"/>
      <path d="M205,593h-7s.95-30.54.95-30.54c1.17-.7,5.71-.89,6.84-.24,2.99,1.72,8.99,16.56,13.21,18.77v-16.5c0-.25-.81-.6-.77-1l1.39-1.38,5.38-.12v31c-2.14-.19-5.12.62-7-.5-3.01-1.8-8.76-15.94-13-18.5v19Z"/>
      <path d="M261,562v6h-16v6.01s11.35.15,11.35.15c7.38,9-10.25,4.74-11.35,5.84v8.01h17.01l-1.5,5h-22.5c1.22-9.44.1-19.73.16-29.41l1.34-1.59h21.5Z"/>
      <path d="M333.86,562.14l11.13,30.86-6.86-.13-2.03-6.27-11.45-.43-3.62,6.38-6.04.45,11.16-30.83,7.7-.03ZM330.99,570c-2.56-.39-1.56.22-2.09,1.41s-3.33,9.18-2.9,9.59h7s-2.01-11-2.01-11Z"/>
      <path d="M432.99,572.99c-8.21,2.23-9.06-10.16-17.49-3.98-12.41,9.09,3.64,29.45,13.16,13.08l4.3.96c-3.13,17.6-28.24,12.69-29-4.6-.81-18.5,25.81-24.03,29.02-5.46Z"/>
      <path d="M167,573c-7.1,2.58-7.04-6.3-13.36-5.73-10.48.95-11.39,22.19,1.76,20.71,6.15-.69,5.88-5.55,7.2-5.92l5.39.96c.1,5.76-6.33,10.37-11.61,10.93-18.2,1.92-24.47-23.48-8.78-30.83,8.68-4.06,19.03-.43,19.4,9.89Z"/>
      <polygon points="377 562 376.06 567.56 366 568 366 593 359 593 359 568 349.94 567.56 349 562 377 562"/>
      <path d="M185,562v31h-7c-.43-.46.83-10.93.81-12.5-.08-6.97-4.7-21.27,6.19-18.5Z"/>
      <path d="M387,562l6.55.95c-.3,9.64-1.68,20.06.46,29.53l-7.01.51v-31Z"/>
      <path class="st1" d="M330.99,570l2.01,11h-7c-.43-.41,2.36-8.38,2.9-9.59s-.47-1.8,2.09-1.41Z"/>
    </g>
  </g>
</svg>