<?xml version="1.0" encoding="UTF-8"?>
<svg id="Layer_1" xmlns="http://www.w3.org/2000/svg" version="1.1" viewBox="0 0 1024 1024">
  <!-- Generator: Adobe Illustrator 29.7.1, SVG Export Plug-In . SVG Version: 2.1.1 Build 8)  -->
  <defs>
    <style>
      .st0 {
        display: none;
      }

      .st0, .st1 {
        fill: #fff;
      }
    </style>
  </defs>
  <g>
    <g>
      <path class="st1" d="M475,519l.59-3.09c4.69-1.03,9.47-1.83,10.35-7.47-1.84-28.31,2.65-60.1.11-87.99-.65-7.11-4.4-8.57-11.05-9.47v-2.98h51.5c47.58,0,72.88,66.32,34.42,97.42-6.35,5.13-24.57,13.58-32.42,13.58h-53.5ZM504.5,413l-1.5,1.5v93c0,3.91,7.28,6.16,10.51,6.49,45.59,4.62,55.3-43.4,40.34-77.34-4.73-10.72-16.69-23.64-29.36-23.64h-20Z"/>
      <path class="st1" d="M606,447v64.5c0,1.84,5.78,5.72,7.99,5.51.43,1.01-2.33,1.99-2.49,1.99h-31.5v-2.99c7.09-.29,9.45-2.5,10.04-9.47.75-8.94,1.2-32.65-.1-40.98-.88-5.66-5.7-5.4-8.92-9.06.03-1.56,21.45-10.41,24.98-9.5Z"/>
      <path class="st1" d="M590.01,442.99c-.66-.66,1.95-6.73,2.51-7.98,1.35-3.04,5.64-13.28,7.03-14.97,6.08-7.42,15.17.03,9.91,8.91-1.39,2.35-17.78,15.7-19.45,14.04Z"/>
      <path class="st1" d="M670.24,509.75c3.5,3.5,9.83-2.94,8.75.73-1.44,4.88-9.83,9.23-14.63,9.46-9.12.44-10.6-8.9-11.86-8.92-9.66,11.78-36.54,13.82-37.58-5.49-.94-17.52,24.52-20.82,36.49-26.61,2.43-1.74,1.85-7.61,1.57-10.4-1.49-14.78-16.04-15.92-25.52-6.55-3.47,3.43-4.48,10.34-9.46,9.04-1.09-26.75,47.59-35.08,50.89-6.39.83,7.21-1.4,42.4,1.35,45.15ZM653,485c-8.41,3.09-21.54,6.4-21.1,17.52.34,8.44,9.74,8.81,15.8,5.68,1.05-.54,5.3-4.21,5.3-4.7v-18.5Z"/>
      <g>
        <path class="st1" d="M830,446v65.5c0,3.45,5.82,2.38,6.51,5.54,2.75-1.7,7.82-3.22,8.47-6.56-1.31-14.32,1.89-32.04-.07-45.93-.91-6.47-9.6-4.13-6.69-9.35.73-1.32,21.55-9.42,22.78-8.2.14,1.84-.77,9.87,1.5,9.98,10.89-11.85,36.98-15.9,41.06,3.97,2.22,10.79-2.29,46.44,2.39,52.61,1.28,1.69,3.98,2.41,6.05,2.47v2.98s-32.99,0-32.99,0v-2.98c4.44-.26,8.19-1.74,8.94-6.58,1.05-6.76.77-38.95-1.15-44.73-2.29-6.9-8.08-8.94-15.07-7.48-1.83.38-7.88,3.67-8.79,5.2-3.57,5.99.76,39.87-.94,49.07.74,3.93,7.06,2.47,6,7.49l-35.46.05c-8.01-.75-17.27.85-25.09,0-1.48-.16-2.53-.17-3.44-1.57l8.06-4.92c.89-.84.83-1.92.98-3.02,1.1-8.02,1-36.96-.14-44.99-.87-6.1-6-3.05-7.85-8.07.2-2.05,21.47-9.81,24.94-10.49Z"/>
        <path class="st1" d="M803,438.01l-3-.7c-6.86-20.52-24.49-30.52-45.77-24.59-34.2,9.54-38.58,78.42-11.56,97.12,15.43,10.67,38.67,7.84,51-6.18,1.18-1.34,8.46-15.81,10.34-13.66-.6,13.48-.03,22.42-14.21,27.28-48.43,16.58-93.75-12.86-82.51-66.51,9.14-43.59,56.46-52.66,93.27-38.82l2.45,26.05Z"/>
        <path class="st1" d="M820.75,416.17c9.38-1.56,15.56,12.63,5.62,17.69-14.07,7.16-20.49-15.22-5.62-17.69Z"/>
        <path class="st1" d="M934.5,479l-1.34,1.66c-2.5,20.08,16.32,35.91,35.18,26.18,1.54-.79,9.84-8.79,10.66-7.83-1.03,11.61-15.65,20.05-26.45,21.04-29.23,2.68-43.46-24.82-34.32-50.32,10.23-28.51,53.32-31.97,60.52-.98.41,1.76,1.9,10.25-.25,10.25h-44ZM963,473c1.94-28.78-28.3-24.8-30,0h30Z"/>
      </g>
    </g>
    <g>
      <path class="st1" d="M257,510.5c1.2,4.32,13.91,7.58,15.05-.95-2.22-28.14,2.8-60.41-.05-88.05-.68-6.57-1.98-5.86-6.99-8.05-1.23-.54-2.45.07-2-1.94.95-2.37,21.29-11.87,23.29-11.39.65.16,1.38.75,1.79,1.29,1.63,2.14,1.03,21.72.96,26.13-.37,23.91-2.4,48.76-1.07,73,.39,7.13.11,14.74,9.02,15.46.18,1.11-.01,1.87-.99,2.5-5.33,3.4-45.79-2.61-55,1.49l-.02-11c-9.73,10.31-32.41,17.48-41.2,2.71-7.16-12.04,1.26-49.44-4.84-56.16-.98-1.08-5.92-3.16-5.93-4.05.78-.65,1.38-1.92,2.44-2.08,2.55-.4,10.29.76,14.09.63,2.54-.09,4.89-1.22,7.46-1.04v51.5c0,.55,2.65,5.47,3.34,6.16,6.27,6.35,23.57,2.56,24.72-6.11.96-7.27.88-31.69-.14-38.96-.7-5.01-3.8-8.45-8.9-8.62v-2.97s24.99-1,24.99-1v61.5Z"/>
      <path class="st1" d="M390,479c-2.76,21.01,14.64,37.59,35.04,27.54,3.77-1.86,5.65-4.68,8.46-6.54,1.29-.86,2.19-1.04,2.5.53.91,4.55-9.74,13.48-13.47,15.51-27.65,15.07-54.07-7.68-50.27-37.27,5.38-41.94,64.61-41.48,64.79-3.2,0,1.12-.51,3.45-1.54,3.45h-45.5ZM420,473c1.4-27.95-29.28-25.51-30,0h30Z"/>
      <path class="st1" d="M365.77,468.76c-1.68,1.69-5.41,1.4-7.51.49-5.24-2.27-5.34-14.01-14.98-16.02-27.39-5.69-33.03,43.47-9.95,53.94,8.53,3.87,18.41,2.08,25.58-3.76,3.13-2.55,4.43-6.62,8.08-7.41-1.34,25.36-36.7,30.81-53.47,15.97-30.55-27.03.96-77.95,42.46-62.46,6.89,2.57,16.31,12.67,9.79,19.24Z"/>
      <path class="st1" d="M81,519c-1.54-4.87,7.05-4.28,8.77-6.24.6-.69,1.11-4.08,1.22-5.27,2.65-27.56-1.99-59.05.06-87.04-.9-9.92-6.11-6.53-11.06-9.94-1.53-1.06-.05-2.51.51-2.51h51c27.9,0,52.71,27.14,53.3,54.5.62,28.63-22.89,56.5-52.3,56.5h-51.5ZM129.5,413c-6.68-.8-14.66.58-21.5,0v95.5c0,9.49,29.75,4.85,36,2,33.09-15.11,27.64-92.48-14.5-97.5Z"/>
    </g>
  </g>
  <g>
    <path class="st1" d="M466.9,562.1l5.11,20.9c1.5-.15,1.55-1.47,1.94-2.55,1.81-5.07,2.13-12.17,4.76-17.21,1.18-2.26,3.21-1.41,5.33-.78l5.97,20.54c1.51-.15,1.54-1.48,1.94-2.55.99-2.69,4.12-17.64,5.19-18.31l5.86-.14-8.1,30.89-8.42-.87-4.98-17.03-5.64,17.87h-6.72s-9.12-29.39-9.12-29.39c-.47-2.82,5.16-1.14,6.89-1.37Z"/>
    <path class="st1" d="M822,562l9.5,1,6.51,19c1.52-.14,1.53-1.51,1.94-2.55,1.13-2.92,4.32-15.25,5.52-16.48,1.91-1.95,6.83-.62,9.53-.97v31h-7c2.06-2.11.77-18.99-.5-19.01l-6.64,18.86h-4.72c-2.15-5.39-3.79-11.09-6.04-16.45-.51-1.22-.15-3.1-2.1-3.4v20h-6v-31Z"/>
    <path class="st1" d="M643,562c2.14.19,5.12-.62,7,.5,2.73,1.63,9.33,15.89,12.99,18.5l-.85-17.36c.82-2.5,4.71-1.52,6.86-1.64v31c-1.89-.32-5.33.63-6.8-.21-1.69-.97-8.8-17.28-13.2-18.79v19h-6v-31Z"/>
    <path class="st1" d="M547,593v-31h14.5c.28,0,4.6,1.48,5.21,1.79,7.45,3.74,9.55,15.23,5.71,22.13-.96,1.73-7.36,7.08-8.92,7.08h-16.5ZM554,588c17.52,2.07,18.26-22.72,0-20v20Z"/>
    <path class="st1" d="M585,593v-31h14.5c6.87,0,12.58,9.12,12.58,15.5,0,5.67-5.36,15.5-11.58,15.5h-15.5ZM592,588c16.96,2.64,17.55-22.75,0-20v20Z"/>
    <path class="st1" d="M708.9,571.9c-3.25,4.65-8.56-5.13-13.15-4.71-15.91,1.44-4.91,34.02,8.22,16.31l-6.03-1.94-.95-4.55h13.01c4.18,25.63-33.67,20.44-28.77-3.28,1.84-8.92,12.29-14.86,20.77-11.22,2.58,1.11,8.91,6.52,6.9,9.4Z"/>
    <path class="st1" d="M884.7,568.33c-2.82-1.95-6.09-1.57-9.13-.43-3.06,6.24,6.4,5.88,10.32,7.7,17.42,8.1-.56,25-15.28,16.28-1.71-1.01-4.73-5.22-3.58-6.83,2.95-4.15,12.12,7.45,17.97,2.46,4.51-8.35-12.55-6.55-16.07-11.93-6.36-9.74,10.82-19.4,20.11-11.12,3.51,3.13,4.26,7.54-1.55,6.6-2.34-.38-2.07-2.24-2.79-2.73Z"/>
    <polygon class="st1" points="536 562 534.5 568 520 568 519.99 574.01 532.01 573.99 532.02 579.43 519.99 579.99 520 588 536 588 536 593 513 593 513 562 536 562"/>
    <path class="st1" d="M761,562c-.04,1.94.67,5.1-1.64,5.86l-13.37.13v7.01s11.01-.01,11.01-.01v5.01s-11.01-.01-11.01-.01v13.01s-6.99,0-6.99,0v-31h22Z"/>
    <path class="st1" d="M798,588h14v5h-21v-31c2.43.07,5.38-.76,7,1.5v24.5Z"/>
    <rect class="st1" x="623" y="562" width="7" height="31"/>
    <path class="st1" d="M778,593h-7v-31c2.43.07,5.38-.76,7,1.5v29.5Z"/>
    <path class="st0" d="M554,588v-20c18.26-2.72,17.52,22.07,0,20Z"/>
    <path class="st0" d="M592,588v-20c17.55-2.75,16.96,22.64,0,20Z"/>
    <g>
      <path class="st1" d="M273,562l8.53.97,6.48,19.03c3.99-2.9,4.98-19.15,9.47-20.01,2.24-.43,5.15.28,7.51.01v31h-7c2.13-5.95-.58-12.75-.5-19.01l-6.59,18.91-3.93-.39-7.98-20.52v21h-6v-31Z"/>
      <path class="st1" d="M205,593h-7s.95-30.54.95-30.54c1.17-.7,5.71-.89,6.84-.24,2.99,1.72,8.99,16.56,13.21,18.77v-16.5c0-.25-.81-.6-.77-1l1.39-1.38,5.38-.12v31c-2.14-.19-5.12.62-7-.5-3.01-1.8-8.76-15.94-13-18.5v19Z"/>
      <path class="st1" d="M261,562v6h-16v6.01s11.35.15,11.35.15c7.38,9-10.25,4.74-11.35,5.84v8.01h17.01l-1.5,5h-22.5c1.22-9.44.1-19.73.16-29.41l1.34-1.59h21.5Z"/>
      <path class="st1" d="M333.86,562.14l11.13,30.86-6.86-.13-2.03-6.27-11.45-.43-3.62,6.38-6.04.45,11.16-30.83,7.7-.03ZM330.99,570c-2.56-.39-1.56.22-2.09,1.41s-3.33,9.18-2.9,9.59h7s-2.01-11-2.01-11Z"/>
      <path class="st1" d="M432.99,572.99c-8.21,2.23-9.06-10.16-17.49-3.98-12.41,9.09,3.64,29.45,13.16,13.08l4.3.96c-3.13,17.6-28.24,12.69-29-4.6-.81-18.5,25.81-24.03,29.02-5.46Z"/>
      <path class="st1" d="M167,573c-7.1,2.58-7.04-6.3-13.36-5.73-10.48.95-11.39,22.19,1.76,20.71,6.15-.69,5.88-5.55,7.2-5.92l5.39.96c.1,5.76-6.33,10.37-11.61,10.93-18.2,1.92-24.47-23.48-8.78-30.83,8.68-4.06,19.03-.43,19.4,9.89Z"/>
      <polygon class="st1" points="377 562 376.06 567.56 366 568 366 593 359 593 359 568 349.94 567.56 349 562 377 562"/>
      <path class="st1" d="M185,562v31h-7c-.43-.46.83-10.93.81-12.5-.08-6.97-4.7-21.27,6.19-18.5Z"/>
      <path class="st1" d="M387,562l6.55.95c-.3,9.64-1.68,20.06.46,29.53l-7.01.51v-31Z"/>
    </g>
  </g>
</svg>