<?xml version="1.0" encoding="UTF-8"?><svg id="Layer_2" xmlns="http://www.w3.org/2000/svg" width="945.657" height="1002.921" viewBox="0 0 945.657 1002.921"><g id="Layer_1-2"><path d="M689.478,456.833c25.195-27.08,57.797-57.816,93.348-70.285,76.337-26.773,149.167,29.251,140.058,110.838-4.949,44.327-73.764,113.082-100.978,151.016-24.004,33.458-41.547,70.699-64.189,104.831-34.988,52.745-90.678,96.874-135.662,140.916-7.092,10.877-5.026,35.724-4.882,49.027.056,5.193,2.18,9.089,1.478,15.151-1.735,14.97-15.012,19.91-28.253,20.947-58.824,4.609-126.07-1.876-185.312-2.28-34.875-6.526-59.96-51.158-79.063-77.641-14.453,22.071-28.46,46.018-49.22,62.919-22.352,18.196-40.071,8.608-65.971,7.664-15.052-.549-33.352,1.763-47.736.097-23.299-2.698-8.028-38.91-6.906-53.065,4.132-52.126-2.226-77.644-30.993-119.534-31.897-46.449-59.957-73.049-79.667-129.303-22.369-63.843-26.791-194.718-21.529-262.823,6.082-78.718,80.692-108.791,142.177-62.176,5.85-11.633,7.449-25.403,13.951-36.775,5.714-9.995,17.228-20.393,26.799-26.242l-96.778-111.4c-7.696-10.387-10.615-14.91-3.737-26.707,7.307-12.533,56.226-73.735,66.671-82.376,3.741-3.095,9.726-6.322,14.596-6.917l176.628.171c15.989,2.178,32.223,27.145,42.31,39.495,10.552,12.919,30.622,35.635,38.235,48.983,6.112,10.717,5.765,15.644-1.275,25.847l-99.115,112.937-.702,4.529,15.933,6.299c33.226-52.153,115.904-59.055,159.957-17.009,1.734-1.02,1.706-2.311,2.223-3.893,6.453-19.754,8.147-52.176,13.128-74.451,17.174-76.811,66.884-213.712,171.684-162.398,66.5,32.561,45.15,148.775,33.009,207.261-15.055,72.523-39.695,142.928-50.219,216.346ZM571.134,934.662v-23.815c0-4.99,4.51-21.966,6.494-27.309,8.234-22.174,53.423-58.708,72.414-77.399,20.615-20.288,45.648-43.548,63.115-66.729,27.067-35.92,47.558-82.254,74.941-120.2,20.124-27.887,86.885-98.895,90.206-127.973,5.782-50.629-40.089-80.425-85.385-60.797-58.586,25.387-80.069,78.22-118.87,120.836-19.843,21.794-45.54,11.447-42.79-18.208,8.776-94.631,38.283-184.084,58.992-275.951,9.992-44.325,29.028-125.87,11.16-167.915-9.068-21.337-39.506-26.578-58.579-16.237-29.388,15.934-55.837,95.342-63.267,127.262-16.906,72.626-23.564,149.837-40.058,222.679-9.304,16.111-36.599,13.996-41.414-4.44-2.562-9.808-.931-35.383-.786-46.97.283-22.639,7.436-48.203-10.686-67.108-16.85-17.578-60.025-15.158-78.885-.936-25.891,19.525-24.078,84.954-29.702,114.723-4.998,15.133-26.195,19.405-37.257,8.542-11.951-11.737-7.233-41.453-12.337-56.805-34.959-25.358-77.107-21.374-109.941,5.533-20.22,16.57-13.748,19.592-18.113,41.812-5.167,26.305-34.714,29.712-44.903,4.2-10.084-25.252-9.537-53.276-46.083-55.331-34.064-1.916-39.259,25.402-40.842,52.999-3.593,62.675-.505,176.869,19.773,235.405,28.624,82.628,106.325,125.461,112.434,216.384,1.359,20.222-.333,42.026-1.51,62.205,13.762-1.935,34.036,3.37,46.67-3.258,3.096-1.624,13.419-12.672,16.279-15.99,22.892-26.558,31.689-72.187,77.72-57.638,24.035,7.597,33.83,37.497,49.921,56.102,3.769,4.358,18.041,19.222,22.611,20.413,45.825,1.871,93.622,3.614,139.532,1.974,6.413-.229,12.716-3.823,19.145-.062ZM240.736,77.335h-51.481c-16.643,22.986-36.497,43.647-53.799,66.052-1.198,1.551-2.953,1.953-2.291,4.623h53.017l54.554-70.676ZM418.997,148.011l-57.628-70.676h-49.944c16.785,24.335,37.603,46.22,53.786,70.676h53.786ZM339.087,148.011l-63.563-69.028-62.449,69.028h126.012ZM190.792,174.13h-40.723l89.884,104.492-49.16-104.492ZM330.635,174.13h-109.108l-1.638,4.675,56.944,122.858,55.449-124.402-1.646-3.132ZM402.093,174.13h-40.723l-48.392,104.477,89.115-104.477ZM196.171,320.859v39.179l23.556-15.628c8.224-5.749,19.894-7.389,28.272-11.666,1.393-.711,2.52.36,2.004-2.675l-21.08-25.138c-3.764-.957-31.877,13.155-32.753,15.928ZM302.21,332.372c14.446,2.256,28.102,8.157,40.683,15.382l8.296-31.238-26.388-11.555-22.592,27.412Z" stroke="#000" stroke-miterlimit="10" stroke-width="44"/><path d="M571.134,934.662c-6.429-3.76-12.732-.167-19.145.062-45.91,1.64-93.707-.102-139.532-1.974-4.57-1.191-18.842-16.055-22.611-20.413-16.091-18.605-25.887-48.505-49.921-56.102-46.031-14.549-54.828,31.08-77.72,57.638-2.859,3.317-13.182,14.365-16.279,15.99-12.634,6.628-32.908,1.323-46.67,3.258,1.177-20.179,2.869-41.984,1.51-62.205-6.109-90.923-83.81-133.756-112.434-216.384-20.278-58.536-23.366-172.73-19.773-235.405,1.582-27.597,6.777-54.915,40.842-52.999,36.546,2.056,35.999,30.08,46.083,55.331,10.188,25.512,39.735,22.106,44.903-4.2,4.365-22.22-2.107-25.242,18.113-41.812,32.834-26.907,74.983-30.892,109.941-5.533,5.104,15.352.386,45.068,12.337,56.805,11.062,10.864,32.259,6.591,37.257-8.542,5.624-29.769,3.811-95.198,29.702-114.723,18.86-14.223,62.035-16.642,78.885.936,18.121,18.904,10.969,44.468,10.686,67.108-.145,11.587-1.775,37.162.786,46.97,4.815,18.436,32.109,20.551,41.414,4.44,16.494-72.842,23.152-150.053,40.058-222.679,7.43-31.92,33.879-111.328,63.267-127.262,19.072-10.341,49.511-5.1,58.579,16.237,17.868,42.045-1.168,123.589-11.16,167.915-20.709,91.867-50.217,181.32-58.992,275.951-2.75,29.655,22.947,40.002,42.79,18.208,38.801-42.616,60.285-95.449,118.87-120.836,45.296-19.628,91.167,10.167,85.385,60.797-3.321,29.078-70.082,100.086-90.206,127.973-27.382,37.947-47.874,84.28-74.941,120.2-17.468,23.181-42.5,46.44-63.115,66.729-18.991,18.69-64.181,55.224-72.414,77.399-1.984,5.343-6.494,22.319-6.494,27.309v23.815ZM356.738,548.295c-11.094.246-20.268,9.445-22.128,20.063,1.602,68.475-1.871,137.57-1.79,205.74.04,34.011,43.647,35.244,46.28,4.676,5.76-66.873-5.386-141.156,1.107-208.628-1.337-12.175-10.891-22.13-23.469-21.851ZM229.557,549.378c-9.612,1.988-15.454,12.747-16.487,21.915,4.254,66.059-5.648,139.182-.05,204.404,2.838,33.071,41.839,29.507,44.655,6.126l.005-215.175c-2.375-13.47-15.111-19.96-28.124-17.27ZM469.258,550.885c-10.388,2.378-15.462,13.82-16.435,23.503-5.88,58.473,4.31,126.473.045,185.954-4.672,18.366,1.179,40.433,23.794,39.231,10.414-.554,17.893-7.506,19.176-17.78,8.419-67.385-3.148-145.08,1.566-213.603-2.34-12.425-15.937-20.099-28.146-17.305Z" fill="#fff"/><polygon points="312.735 183.522 313.841 185.626 276.583 269.215 238.321 186.663 239.422 183.522 312.735 183.522" fill="#fff"/><polygon points="321.155 133.906 223.151 133.906 271.719 78.983 321.155 133.906" fill="#fff"/><path d="M219.888,87.886l-43.434,51.772-40.998,3.73c-.661-2.67,8.687-10.726,9.885-12.277,17.303-22.405,21.644-23.248,38.287-46.234l36.26,3.01Z" fill="#fff"/><path d="M400.189,133.012h-33.685c-10.135-18.386-23.173-34.84-33.685-53.136h31.279l36.091,53.136Z" fill="#fff"/><polygon points="182.579 176.656 239.953 278.622 164.364 182.258 182.579 176.656" fill="#fff"/><polygon points="380.647 184.123 321.732 268.613 353.725 184.123 380.647 184.123" fill="#fff"/><path d="M196.171,320.859c.876-2.772,28.988-16.884,32.753-15.928l21.08,25.138c.515,3.034-.611,1.963-2.004,2.675-8.378,4.277-20.048,5.917-28.272,11.666l-23.556,15.628v-39.179Z" fill="#fff"/><path d="M302.21,332.372l22.592-27.412,26.388,11.555-8.296,31.238c-12.581-7.224-26.238-13.126-40.683-15.382Z" fill="#fff"/><path d="M356.738,548.295c12.578-.279,22.132,9.676,23.469,21.851-6.493,67.471,4.653,141.755-1.107,208.628-2.633,30.568-46.24,29.335-46.28-4.676-.08-68.17,3.392-137.265,1.79-205.74,1.86-10.618,11.034-19.817,22.128-20.063Z" stroke="#000" stroke-miterlimit="10" stroke-width="14"/><path d="M229.557,549.378c13.013-2.691,25.749,3.8,28.124,17.27l-.005,215.175c-2.816,23.381-41.817,26.945-44.655-6.126-5.598-65.223,4.304-138.346.05-204.404,1.033-9.168,6.875-19.927,16.487-21.915Z" stroke="#000" stroke-miterlimit="10" stroke-width="12"/><path d="M469.258,550.885c12.209-2.795,25.806,4.88,28.146,17.305-4.714,68.522,6.853,146.218-1.566,213.603-1.284,10.274-8.763,17.226-19.176,17.78-22.616,1.203-28.466-20.865-23.794-39.231,4.265-59.481-5.924-127.48-.045-185.954.974-9.683,6.047-21.125,16.435-23.503Z" stroke="#000" stroke-miterlimit="10" stroke-width="12"/></g></svg>